<?xml version="1.0" encoding="UTF-8" standalone="no"?>
<!DOCTYPE svg PUBLIC "-//W3C//DTD SVG 1.1//EN"
 "http://www.w3.org/Graphics/SVG/1.1/DTD/svg11.dtd">
<!-- Generated by graphviz version 2.26.3 (20100126.1600)
 -->
<!-- Title: G Pages: 1 -->
<svg width="910pt" height="512pt"
 viewBox="0.00 0.00 910.00 512.00" xmlns="http://www.w3.org/2000/svg" xmlns:xlink="http://www.w3.org/1999/xlink">
<g id="graph1" class="graph" transform="scale(1 1) rotate(0) translate(4 508)">
<title>G</title>
<polygon fill="white" stroke="white" points="-4,5 -4,-508 907,-508 907,5 -4,5"/>
<g id="graph2" class="cluster"><title>cluster_Global</title>
<polyline fill="none" stroke="gray" points="427,-98 882,-98 "/>
<path fill="none" stroke="gray" d="M882,-98C888,-98 894,-104 894,-110"/>
<polyline fill="none" stroke="gray" points="894,-110 894,-484 "/>
<path fill="none" stroke="gray" d="M894,-484C894,-490 888,-496 882,-496"/>
<polyline fill="none" stroke="gray" points="882,-496 427,-496 "/>
<path fill="none" stroke="gray" d="M427,-496C421,-496 415,-490 415,-484"/>
<polyline fill="none" stroke="gray" points="415,-484 415,-110 "/>
<path fill="none" stroke="gray" d="M415,-110C415,-104 421,-98 427,-98"/>
<text text-anchor="middle" x="654.5" y="-482.1" font-family="Times Roman,serif" font-size="11.00" fill="gray">Global</text>
</g>
<!-- \\DiffbotConnection -->
<g id="node2" class="node"><title>\\DiffbotConnection</title>
<polygon fill="none" stroke="black" points="554,-466 424,-466 424,-430 554,-430 554,-466"/>
<text text-anchor="middle" x="489" y="-445.1" font-family="Courier,monospace" font-size="11.00">DiffbotConnection</text>
</g>
<!-- \\HttpSourceConnection -->
<g id="node13" class="node"><title>\\HttpSourceConnection</title>
<ellipse fill="none" stroke="black" cx="125" cy="-448" rx="125.158" ry="18.3848"/>
<text text-anchor="middle" x="125" y="-444.4" font-family="Times Roman,serif" font-size="14.00" fill="gray">\HttpSourceConnection</text>
</g>
<!-- \\DiffbotConnection&#45;&gt;\\HttpSourceConnection -->
<g id="edge3" class="edge"><title>\\DiffbotConnection&#45;&gt;\\HttpSourceConnection</title>
<path fill="none" stroke="black" d="M423.082,-448C377.758,-448 315.95,-448 260.364,-448"/>
<polygon fill="none" stroke="black" points="260.063,-444.5 250.063,-448 260.063,-451.5 260.063,-444.5"/>
</g>
<!-- \\DiffbotSource -->
<g id="node3" class="node"><title>\\DiffbotSource</title>
<polygon fill="none" stroke="black" points="541,-412 437,-412 437,-376 541,-376 541,-412"/>
<text text-anchor="middle" x="489" y="-391.1" font-family="Courier,monospace" font-size="11.00">DiffbotSource</text>
</g>
<!-- \\HttpSource -->
<g id="node15" class="node"><title>\\HttpSource</title>
<ellipse fill="none" stroke="black" cx="125" cy="-394" rx="70.0036" ry="18.3848"/>
<text text-anchor="middle" x="125" y="-390.4" font-family="Times Roman,serif" font-size="14.00" fill="gray">\HttpSource</text>
</g>
<!-- \\DiffbotSource&#45;&gt;\\HttpSource -->
<g id="edge5" class="edge"><title>\\DiffbotSource&#45;&gt;\\HttpSource</title>
<path fill="none" stroke="black" d="M436.848,-394C376.329,-394 275.841,-394 205.33,-394"/>
<polygon fill="none" stroke="black" points="205.153,-390.5 195.153,-394 205.153,-397.5 205.153,-390.5"/>
</g>
<!-- \\DiffbotModel -->
<g id="node4" class="node"><title>\\DiffbotModel</title>
<polygon fill="none" stroke="black" points="538,-358 440,-358 440,-322 538,-322 538,-358"/>
<text text-anchor="middle" x="489" y="-337.1" font-family="Courier,monospace" font-size="11.00">DiffbotModel</text>
</g>
<!-- \\HttpSourceModel -->
<g id="node17" class="node"><title>\\HttpSourceModel</title>
<ellipse fill="none" stroke="black" cx="125" cy="-340" rx="98.9949" ry="18.3848"/>
<text text-anchor="middle" x="125" y="-336.4" font-family="Times Roman,serif" font-size="14.00" fill="gray">\HttpSourceModel</text>
</g>
<!-- \\DiffbotModel&#45;&gt;\\HttpSourceModel -->
<g id="edge7" class="edge"><title>\\DiffbotModel&#45;&gt;\\HttpSourceModel</title>
<path fill="none" stroke="black" d="M439.909,-340C387.581,-340 303.021,-340 234.696,-340"/>
<polygon fill="none" stroke="black" points="234.309,-336.5 224.309,-340 234.309,-343.5 234.309,-336.5"/>
</g>
<!-- \\DiffbotArticle -->
<g id="node5" class="node"><title>\\DiffbotArticle</title>
<polygon fill="none" stroke="black" points="862,-358 752,-358 752,-322 862,-322 862,-358"/>
<text text-anchor="middle" x="807" y="-337.1" font-family="Courier,monospace" font-size="11.00">DiffbotArticle</text>
</g>
<!-- \\DiffbotArticle&#45;&gt;\\DiffbotModel -->
<g id="edge9" class="edge"><title>\\DiffbotArticle&#45;&gt;\\DiffbotModel</title>
<path fill="none" stroke="black" d="M751.245,-340C694.364,-340 606.426,-340 548.296,-340"/>
<polygon fill="none" stroke="black" points="548.161,-336.5 538.161,-340 548.161,-343.5 548.161,-336.5"/>
</g>
<!-- \\DiffbotModelTest -->
<g id="node6" class="node"><title>\\DiffbotModelTest</title>
<polygon fill="none" stroke="black" points="869,-250 745,-250 745,-214 869,-214 869,-250"/>
<text text-anchor="middle" x="807" y="-229.1" font-family="Courier,monospace" font-size="11.00">DiffbotModelTest</text>
</g>
<!-- \\CakeTestCase -->
<g id="node20" class="node"><title>\\CakeTestCase</title>
<ellipse fill="none" stroke="black" cx="489" cy="-72" rx="82.0244" ry="18.3848"/>
<text text-anchor="middle" x="489" y="-68.4" font-family="Times Roman,serif" font-size="14.00" fill="gray">\CakeTestCase</text>
</g>
<!-- \\DiffbotModelTest&#45;&gt;\\CakeTestCase -->
<g id="edge11" class="edge"><title>\\DiffbotModelTest&#45;&gt;\\CakeTestCase</title>
<path fill="none" stroke="black" d="M744.145,-214.989C738.407,-212.14 732.915,-208.833 728,-205 681.631,-168.838 705.722,-125.393 656,-94 633.734,-79.9415 606.47,-73.0511 580.478,-70.0255"/>
<polygon fill="none" stroke="black" points="580.504,-66.5112 570.21,-69.0171 579.82,-73.4777 580.504,-66.5112"/>
</g>
<!-- \\DiffbotSourceTest -->
<g id="node7" class="node"><title>\\DiffbotSourceTest</title>
<polygon fill="none" stroke="black" points="872,-196 742,-196 742,-160 872,-160 872,-196"/>
<text text-anchor="middle" x="807" y="-175.1" font-family="Courier,monospace" font-size="11.00">DiffbotSourceTest</text>
</g>
<!-- \\DiffbotSourceTest&#45;&gt;\\CakeTestCase -->
<g id="edge13" class="edge"><title>\\DiffbotSourceTest&#45;&gt;\\CakeTestCase</title>
<path fill="none" stroke="black" d="M746.968,-159.92C740.427,-157.238 733.98,-154.263 728,-151 692.172,-131.451 693.587,-109.905 656,-94 632.685,-84.1339 606.04,-78.4248 580.985,-75.1894"/>
<polygon fill="none" stroke="black" points="581.071,-71.6756 570.732,-73.9885 580.257,-78.6281 581.071,-71.6756"/>
</g>
<!-- \\DiffbotTestSource -->
<g id="node8" class="node"><title>\\DiffbotTestSource</title>
<polygon fill="none" stroke="black" points="872,-412 742,-412 742,-376 872,-376 872,-412"/>
<text text-anchor="middle" x="807" y="-391.1" font-family="Courier,monospace" font-size="11.00">DiffbotTestSource</text>
</g>
<!-- \\DiffbotTestSource&#45;&gt;\\DiffbotSource -->
<g id="edge15" class="edge"><title>\\DiffbotTestSource&#45;&gt;\\DiffbotSource</title>
<path fill="none" stroke="black" d="M741.496,-394C685.727,-394 606.157,-394 551.32,-394"/>
<polygon fill="none" stroke="black" points="551.038,-390.5 541.038,-394 551.038,-397.5 551.038,-390.5"/>
</g>
<!-- \\DiffbotTestConnection -->
<g id="node9" class="node"><title>\\DiffbotTestConnection</title>
<polygon fill="none" stroke="black" points="886,-466 728,-466 728,-430 886,-430 886,-466"/>
<text text-anchor="middle" x="807" y="-445.1" font-family="Courier,monospace" font-size="11.00">DiffbotTestConnection</text>
</g>
<!-- \\DiffbotTestConnection&#45;&gt;\\DiffbotConnection -->
<g id="edge17" class="edge"><title>\\DiffbotTestConnection&#45;&gt;\\DiffbotConnection</title>
<path fill="none" stroke="black" d="M727.985,-448C678.183,-448 614.225,-448 565.009,-448"/>
<polygon fill="none" stroke="black" points="564.741,-444.5 554.741,-448 564.741,-451.5 564.741,-444.5"/>
</g>
<!-- \\DiffbotArticleTest -->
<g id="node10" class="node"><title>\\DiffbotArticleTest</title>
<polygon fill="none" stroke="black" points="876,-304 738,-304 738,-268 876,-268 876,-304"/>
<text text-anchor="middle" x="807" y="-283.1" font-family="Courier,monospace" font-size="11.00">DiffbotArticleTest</text>
</g>
<!-- \\DiffbotArticleTest&#45;&gt;\\CakeTestCase -->
<g id="edge19" class="edge"><title>\\DiffbotArticleTest&#45;&gt;\\CakeTestCase</title>
<path fill="none" stroke="black" d="M739.988,-267.834C735.68,-265.267 731.625,-262.339 728,-259 669.149,-204.794 719.929,-142.113 656,-94 633.733,-77.2421 604.903,-69.912 577.481,-67.3128"/>
<polygon fill="none" stroke="black" points="577.69,-63.8187 567.456,-66.5605 577.166,-70.7991 577.69,-63.8187"/>
</g>
<!-- \\AllDiffbotSourceTest -->
<g id="node11" class="node"><title>\\AllDiffbotSourceTest</title>
<polygon fill="none" stroke="black" points="883,-142 731,-142 731,-106 883,-106 883,-142"/>
<text text-anchor="middle" x="807" y="-121.1" font-family="Courier,monospace" font-size="11.00">AllDiffbotSourceTest</text>
</g>
<!-- \\PHPUnit_Framework_TestSuite -->
<g id="node26" class="node"><title>\\PHPUnit_Framework_TestSuite</title>
<ellipse fill="none" stroke="black" cx="489" cy="-18" rx="166.877" ry="18.3848"/>
<text text-anchor="middle" x="489" y="-14.4" font-family="Times Roman,serif" font-size="14.00" fill="gray">\PHPUnit_Framework_TestSuite</text>
</g>
<!-- \\AllDiffbotSourceTest&#45;&gt;\\PHPUnit_Framework_TestSuite -->
<g id="edge21" class="edge"><title>\\AllDiffbotSourceTest&#45;&gt;\\PHPUnit_Framework_TestSuite</title>
<path fill="none" stroke="black" d="M779.27,-105.988C749.867,-87.7465 701.479,-60.1296 656,-45 642.188,-40.4051 627.464,-36.5774 612.7,-33.392"/>
<polygon fill="none" stroke="black" points="612.983,-29.877 602.483,-31.2878 611.571,-36.7331 612.983,-29.877"/>
</g>
</g>
</svg>
