<?xml version="1.0" encoding="UTF-8" standalone="no"?>
<!DOCTYPE svg PUBLIC "-//W3C//DTD SVG 1.1//EN"
 "http://www.w3.org/Graphics/SVG/1.1/DTD/svg11.dtd">
<!-- Generated by graphviz version 2.26.3 (20100126.1600)
 -->
<!-- Title: G Pages: 1 -->
<svg width="868pt" height="566pt"
 viewBox="0.00 0.00 868.00 566.00" xmlns="http://www.w3.org/2000/svg" xmlns:xlink="http://www.w3.org/1999/xlink">
<g id="graph1" class="graph" transform="scale(1 1) rotate(0) translate(4 562)">
<title>G</title>
<polygon fill="white" stroke="white" points="-4,5 -4,-562 865,-562 865,5 -4,5"/>
<g id="graph2" class="cluster"><title>cluster_Global</title>
<polyline fill="none" stroke="gray" points="331,-206 840,-206 "/>
<path fill="none" stroke="gray" d="M840,-206C846,-206 852,-212 852,-218"/>
<polyline fill="none" stroke="gray" points="852,-218 852,-538 "/>
<path fill="none" stroke="gray" d="M852,-538C852,-544 846,-550 840,-550"/>
<polyline fill="none" stroke="gray" points="840,-550 331,-550 "/>
<path fill="none" stroke="gray" d="M331,-550C325,-550 319,-544 319,-538"/>
<polyline fill="none" stroke="gray" points="319,-538 319,-218 "/>
<path fill="none" stroke="gray" d="M319,-218C319,-212 325,-206 331,-206"/>
<text text-anchor="middle" x="585.5" y="-536.1" font-family="Times Roman,serif" font-size="11.00" fill="gray">Global</text>
</g>
<!-- \\AllDiffbotSourceTest -->
<g id="node2" class="node"><title>\\AllDiffbotSourceTest</title>
<polygon fill="none" stroke="black" points="807,-466 655,-466 655,-430 807,-430 807,-466"/>
<text text-anchor="middle" x="731" y="-445.1" font-family="Courier,monospace" font-size="11.00">AllDiffbotSourceTest</text>
</g>
<!-- \\PHPUnit_Framework_TestSuite -->
<g id="node10" class="node"><title>\\PHPUnit_Framework_TestSuite</title>
<ellipse fill="none" stroke="black" cx="379" cy="-180" rx="166.877" ry="18.3848"/>
<text text-anchor="middle" x="379" y="-176.4" font-family="Times Roman,serif" font-size="14.00" fill="gray">\PHPUnit_Framework_TestSuite</text>
</g>
<!-- \\AllDiffbotSourceTest&#45;&gt;\\PHPUnit_Framework_TestSuite -->
<g id="edge3" class="edge"><title>\\AllDiffbotSourceTest&#45;&gt;\\PHPUnit_Framework_TestSuite</title>
<path fill="none" stroke="black" d="M654.888,-441.003C641.359,-436.82 628.316,-430.492 618,-421 542.604,-351.623 624.886,-267.382 546,-202 542.355,-198.979 538.504,-196.252 534.486,-193.795"/>
<polygon fill="none" stroke="black" points="535.893,-190.574 525.442,-188.834 532.526,-196.712 535.893,-190.574"/>
</g>
<!-- \\DiffbotSourceTest -->
<g id="node3" class="node"><title>\\DiffbotSourceTest</title>
<polygon fill="none" stroke="black" points="796,-412 666,-412 666,-376 796,-376 796,-412"/>
<text text-anchor="middle" x="731" y="-391.1" font-family="Courier,monospace" font-size="11.00">DiffbotSourceTest</text>
</g>
<!-- \\CakeTestCase -->
<g id="node12" class="node"><title>\\CakeTestCase</title>
<ellipse fill="none" stroke="black" cx="379" cy="-126" rx="82.0244" ry="18.3848"/>
<text text-anchor="middle" x="379" y="-122.4" font-family="Times Roman,serif" font-size="14.00" fill="gray">\CakeTestCase</text>
</g>
<!-- \\DiffbotSourceTest&#45;&gt;\\CakeTestCase -->
<g id="edge5" class="edge"><title>\\DiffbotSourceTest&#45;&gt;\\CakeTestCase</title>
<path fill="none" stroke="black" d="M665.218,-389.712C648.154,-385.748 630.954,-378.838 618,-367 543.921,-299.306 622.54,-217.898 546,-153 524.852,-135.069 496.591,-126.691 469.338,-123.259"/>
<polygon fill="none" stroke="black" points="469.67,-119.774 459.359,-122.21 468.938,-126.736 469.67,-119.774"/>
</g>
<!-- \\DiffbotTestSource -->
<g id="node4" class="node"><title>\\DiffbotTestSource</title>
<polygon fill="none" stroke="black" points="796,-520 666,-520 666,-484 796,-484 796,-520"/>
<text text-anchor="middle" x="731" y="-499.1" font-family="Courier,monospace" font-size="11.00">DiffbotTestSource</text>
</g>
<!-- \\DiffbotSource -->
<g id="node8" class="node"><title>\\DiffbotSource</title>
<polygon fill="none" stroke="black" points="431,-520 327,-520 327,-484 431,-484 431,-520"/>
<text text-anchor="middle" x="379" y="-499.1" font-family="Courier,monospace" font-size="11.00">DiffbotSource</text>
</g>
<!-- \\DiffbotTestSource&#45;&gt;\\DiffbotSource -->
<g id="edge7" class="edge"><title>\\DiffbotTestSource&#45;&gt;\\DiffbotSource</title>
<path fill="none" stroke="black" d="M665.204,-502C601.022,-502 504.122,-502 441.198,-502"/>
<polygon fill="none" stroke="black" points="441.017,-498.5 431.017,-502 441.017,-505.5 441.017,-498.5"/>
</g>
<!-- \\DiffbotTestHttpSourceConnection -->
<g id="node5" class="node"><title>\\DiffbotTestHttpSourceConnection</title>
<polygon fill="none" stroke="black" points="844,-358 618,-358 618,-322 844,-322 844,-358"/>
<text text-anchor="middle" x="731" y="-337.1" font-family="Courier,monospace" font-size="11.00">DiffbotTestHttpSourceConnection</text>
</g>
<!-- \\HttpSourceConnection -->
<g id="node15" class="node"><title>\\HttpSourceConnection</title>
<ellipse fill="none" stroke="black" cx="379" cy="-72" rx="125.158" ry="18.3848"/>
<text text-anchor="middle" x="379" y="-68.4" font-family="Times Roman,serif" font-size="14.00" fill="gray">\HttpSourceConnection</text>
</g>
<!-- \\DiffbotTestHttpSourceConnection&#45;&gt;\\HttpSourceConnection -->
<g id="edge9" class="edge"><title>\\DiffbotTestHttpSourceConnection&#45;&gt;\\HttpSourceConnection</title>
<path fill="none" stroke="black" d="M629.856,-321.873C625.633,-319.276 621.648,-316.334 618,-313 543.921,-245.306 622.54,-163.898 546,-99 535.736,-90.297 523.796,-83.8445 511.109,-79.1157"/>
<polygon fill="none" stroke="black" points="511.871,-75.6799 501.277,-75.8267 509.65,-82.3184 511.871,-75.6799"/>
</g>
<!-- \\DiffbotModel -->
<g id="node6" class="node"><title>\\DiffbotModel</title>
<polygon fill="none" stroke="black" points="780,-250 682,-250 682,-214 780,-214 780,-250"/>
<text text-anchor="middle" x="731" y="-229.1" font-family="Courier,monospace" font-size="11.00">DiffbotModel</text>
</g>
<!-- \\HttpSourceModel -->
<g id="node17" class="node"><title>\\HttpSourceModel</title>
<ellipse fill="none" stroke="black" cx="379" cy="-18" rx="98.9949" ry="18.3848"/>
<text text-anchor="middle" x="379" y="-14.4" font-family="Times Roman,serif" font-size="14.00" fill="gray">\HttpSourceModel</text>
</g>
<!-- \\DiffbotModel&#45;&gt;\\HttpSourceModel -->
<g id="edge11" class="edge"><title>\\DiffbotModel&#45;&gt;\\HttpSourceModel</title>
<path fill="none" stroke="black" d="M719.194,-213.928C693.095,-175.622 626.39,-86.3965 546,-45 527.178,-35.3078 505.715,-28.9331 484.591,-24.7761"/>
<polygon fill="none" stroke="black" points="485.055,-21.3033 474.592,-22.9635 483.807,-28.1911 485.055,-21.3033"/>
</g>
<!-- \\DiffbotConnection -->
<g id="node7" class="node"><title>\\DiffbotConnection</title>
<polygon fill="none" stroke="black" points="796,-304 666,-304 666,-268 796,-268 796,-304"/>
<text text-anchor="middle" x="731" y="-283.1" font-family="Courier,monospace" font-size="11.00">DiffbotConnection</text>
</g>
<!-- \\DiffbotConnection&#45;&gt;\\HttpSourceConnection -->
<g id="edge13" class="edge"><title>\\DiffbotConnection&#45;&gt;\\HttpSourceConnection</title>
<path fill="none" stroke="black" d="M665.37,-280.723C648.502,-276.734 631.365,-270.058 618,-259 557.92,-209.289 607.883,-146.447 546,-99 535.122,-90.6597 522.66,-84.463 509.552,-79.9056"/>
<polygon fill="none" stroke="black" points="510.497,-76.5337 499.908,-76.8696 508.395,-83.2107 510.497,-76.5337"/>
</g>
<!-- \\HttpSource -->
<g id="node20" class="node"><title>\\HttpSource</title>
<ellipse fill="none" stroke="black" cx="70" cy="-502" rx="70.0036" ry="18.3848"/>
<text text-anchor="middle" x="70" y="-498.4" font-family="Times Roman,serif" font-size="14.00" fill="gray">\HttpSource</text>
</g>
<!-- \\DiffbotSource&#45;&gt;\\HttpSource -->
<g id="edge15" class="edge"><title>\\DiffbotSource&#45;&gt;\\HttpSource</title>
<path fill="none" stroke="black" d="M326.932,-502C278.68,-502 206.168,-502 150.468,-502"/>
<polygon fill="none" stroke="black" points="150.272,-498.5 140.272,-502 150.272,-505.5 150.272,-498.5"/>
</g>
</g>
</svg>
