<?xml version="1.0" encoding="UTF-8" standalone="no"?>
<!DOCTYPE svg PUBLIC "-//W3C//DTD SVG 1.1//EN"
 "http://www.w3.org/Graphics/SVG/1.1/DTD/svg11.dtd">
<!-- Generated by graphviz version 2.26.3 (20100126.1600)
 -->
<!-- Title: G Pages: 1 -->
<svg width="910pt" height="512pt"
 viewBox="0.00 0.00 910.00 512.00" xmlns="http://www.w3.org/2000/svg" xmlns:xlink="http://www.w3.org/1999/xlink">
<g id="graph1" class="graph" transform="scale(1 1) rotate(0) translate(4 508)">
<title>G</title>
<polygon fill="white" stroke="white" points="-4,5 -4,-508 907,-508 907,5 -4,5"/>
<g id="graph2" class="cluster"><title>cluster_Global</title>
<polyline fill="none" stroke="gray" points="427,-98 882,-98 "/>
<path fill="none" stroke="gray" d="M882,-98C888,-98 894,-104 894,-110"/>
<polyline fill="none" stroke="gray" points="894,-110 894,-484 "/>
<path fill="none" stroke="gray" d="M894,-484C894,-490 888,-496 882,-496"/>
<polyline fill="none" stroke="gray" points="882,-496 427,-496 "/>
<path fill="none" stroke="gray" d="M427,-496C421,-496 415,-490 415,-484"/>
<polyline fill="none" stroke="gray" points="415,-484 415,-110 "/>
<path fill="none" stroke="gray" d="M415,-110C415,-104 421,-98 427,-98"/>
<text text-anchor="middle" x="654.5" y="-482.1" font-family="Times Roman,serif" font-size="11.00" fill="gray">Global</text>
</g>
<!-- \\DiffbotModel -->
<g id="node2" class="node"><title>\\DiffbotModel</title>
<polygon fill="none" stroke="black" points="538,-466 440,-466 440,-430 538,-430 538,-466"/>
<text text-anchor="middle" x="489" y="-445.1" font-family="Courier,monospace" font-size="11.00">DiffbotModel</text>
</g>
<!-- \\HttpSourceModel -->
<g id="node13" class="node"><title>\\HttpSourceModel</title>
<ellipse fill="none" stroke="black" cx="125" cy="-448" rx="98.9949" ry="18.3848"/>
<text text-anchor="middle" x="125" y="-444.4" font-family="Times Roman,serif" font-size="14.00" fill="gray">\HttpSourceModel</text>
</g>
<!-- \\DiffbotModel&#45;&gt;\\HttpSourceModel -->
<g id="edge3" class="edge"><title>\\DiffbotModel&#45;&gt;\\HttpSourceModel</title>
<path fill="none" stroke="black" d="M439.909,-448C387.581,-448 303.021,-448 234.696,-448"/>
<polygon fill="none" stroke="black" points="234.309,-444.5 224.309,-448 234.309,-451.5 234.309,-444.5"/>
</g>
<!-- \\DiffbotArticle -->
<g id="node3" class="node"><title>\\DiffbotArticle</title>
<polygon fill="none" stroke="black" points="862,-466 752,-466 752,-430 862,-430 862,-466"/>
<text text-anchor="middle" x="807" y="-445.1" font-family="Courier,monospace" font-size="11.00">DiffbotArticle</text>
</g>
<!-- \\DiffbotArticle&#45;&gt;\\DiffbotModel -->
<g id="edge5" class="edge"><title>\\DiffbotArticle&#45;&gt;\\DiffbotModel</title>
<path fill="none" stroke="black" d="M751.245,-448C694.364,-448 606.426,-448 548.296,-448"/>
<polygon fill="none" stroke="black" points="548.161,-444.5 538.161,-448 548.161,-451.5 548.161,-444.5"/>
</g>
<!-- \\DiffbotConnection -->
<g id="node4" class="node"><title>\\DiffbotConnection</title>
<polygon fill="none" stroke="black" points="554,-412 424,-412 424,-376 554,-376 554,-412"/>
<text text-anchor="middle" x="489" y="-391.1" font-family="Courier,monospace" font-size="11.00">DiffbotConnection</text>
</g>
<!-- \\HttpSourceConnection -->
<g id="node16" class="node"><title>\\HttpSourceConnection</title>
<ellipse fill="none" stroke="black" cx="125" cy="-394" rx="125.158" ry="18.3848"/>
<text text-anchor="middle" x="125" y="-390.4" font-family="Times Roman,serif" font-size="14.00" fill="gray">\HttpSourceConnection</text>
</g>
<!-- \\DiffbotConnection&#45;&gt;\\HttpSourceConnection -->
<g id="edge7" class="edge"><title>\\DiffbotConnection&#45;&gt;\\HttpSourceConnection</title>
<path fill="none" stroke="black" d="M423.082,-394C377.758,-394 315.95,-394 260.364,-394"/>
<polygon fill="none" stroke="black" points="260.063,-390.5 250.063,-394 260.063,-397.5 260.063,-390.5"/>
</g>
<!-- \\DiffbotSource -->
<g id="node5" class="node"><title>\\DiffbotSource</title>
<polygon fill="none" stroke="black" points="541,-358 437,-358 437,-322 541,-322 541,-358"/>
<text text-anchor="middle" x="489" y="-337.1" font-family="Courier,monospace" font-size="11.00">DiffbotSource</text>
</g>
<!-- \\HttpSource -->
<g id="node18" class="node"><title>\\HttpSource</title>
<ellipse fill="none" stroke="black" cx="125" cy="-340" rx="70.0036" ry="18.3848"/>
<text text-anchor="middle" x="125" y="-336.4" font-family="Times Roman,serif" font-size="14.00" fill="gray">\HttpSource</text>
</g>
<!-- \\DiffbotSource&#45;&gt;\\HttpSource -->
<g id="edge9" class="edge"><title>\\DiffbotSource&#45;&gt;\\HttpSource</title>
<path fill="none" stroke="black" d="M436.848,-340C376.329,-340 275.841,-340 205.33,-340"/>
<polygon fill="none" stroke="black" points="205.153,-336.5 195.153,-340 205.153,-343.5 205.153,-336.5"/>
</g>
<!-- \\AllDiffbotSourceTest -->
<g id="node6" class="node"><title>\\AllDiffbotSourceTest</title>
<polygon fill="none" stroke="black" points="883,-304 731,-304 731,-268 883,-268 883,-304"/>
<text text-anchor="middle" x="807" y="-283.1" font-family="Courier,monospace" font-size="11.00">AllDiffbotSourceTest</text>
</g>
<!-- \\PHPUnit_Framework_TestSuite -->
<g id="node20" class="node"><title>\\PHPUnit_Framework_TestSuite</title>
<ellipse fill="none" stroke="black" cx="489" cy="-72" rx="166.877" ry="18.3848"/>
<text text-anchor="middle" x="489" y="-68.4" font-family="Times Roman,serif" font-size="14.00" fill="gray">\PHPUnit_Framework_TestSuite</text>
</g>
<!-- \\AllDiffbotSourceTest&#45;&gt;\\PHPUnit_Framework_TestSuite -->
<g id="edge11" class="edge"><title>\\AllDiffbotSourceTest&#45;&gt;\\PHPUnit_Framework_TestSuite</title>
<path fill="none" stroke="black" d="M739.988,-267.834C735.68,-265.267 731.625,-262.339 728,-259 669.149,-204.794 719.929,-142.113 656,-94 651.8,-90.8388 647.366,-88.0131 642.752,-85.4914"/>
<polygon fill="none" stroke="black" points="644.187,-82.2968 633.671,-81.0083 641.088,-88.5735 644.187,-82.2968"/>
</g>
<!-- \\DiffbotModelTest -->
<g id="node7" class="node"><title>\\DiffbotModelTest</title>
<polygon fill="none" stroke="black" points="869,-196 745,-196 745,-160 869,-160 869,-196"/>
<text text-anchor="middle" x="807" y="-175.1" font-family="Courier,monospace" font-size="11.00">DiffbotModelTest</text>
</g>
<!-- \\CakeTestCase -->
<g id="node22" class="node"><title>\\CakeTestCase</title>
<ellipse fill="none" stroke="black" cx="489" cy="-18" rx="82.0244" ry="18.3848"/>
<text text-anchor="middle" x="489" y="-14.4" font-family="Times Roman,serif" font-size="14.00" fill="gray">\CakeTestCase</text>
</g>
<!-- \\DiffbotModelTest&#45;&gt;\\CakeTestCase -->
<g id="edge13" class="edge"><title>\\DiffbotModelTest&#45;&gt;\\CakeTestCase</title>
<path fill="none" stroke="black" d="M744.229,-160.881C738.474,-158.053 732.955,-154.78 728,-151 682.722,-116.455 704.033,-75.599 656,-45 633.914,-30.9301 606.954,-23.3858 581.194,-19.5283"/>
<polygon fill="none" stroke="black" points="581.387,-16.0233 571.014,-18.1804 580.468,-22.9627 581.387,-16.0233"/>
</g>
<!-- \\DiffbotArticleTest -->
<g id="node8" class="node"><title>\\DiffbotArticleTest</title>
<polygon fill="none" stroke="black" points="876,-142 738,-142 738,-106 876,-106 876,-142"/>
<text text-anchor="middle" x="807" y="-121.1" font-family="Courier,monospace" font-size="11.00">DiffbotArticleTest</text>
</g>
<!-- \\DiffbotArticleTest&#45;&gt;\\CakeTestCase -->
<g id="edge15" class="edge"><title>\\DiffbotArticleTest&#45;&gt;\\CakeTestCase</title>
<path fill="none" stroke="black" d="M779.27,-105.988C749.867,-87.7465 701.479,-60.1296 656,-45 630.177,-36.4094 601.168,-30.5004 574.663,-26.4571"/>
<polygon fill="none" stroke="black" points="575.039,-22.975 564.639,-24.9971 574.03,-29.9019 575.039,-22.975"/>
</g>
<!-- \\DiffbotSourceTest -->
<g id="node9" class="node"><title>\\DiffbotSourceTest</title>
<polygon fill="none" stroke="black" points="872,-250 742,-250 742,-214 872,-214 872,-250"/>
<text text-anchor="middle" x="807" y="-229.1" font-family="Courier,monospace" font-size="11.00">DiffbotSourceTest</text>
</g>
<!-- \\DiffbotSourceTest&#45;&gt;\\CakeTestCase -->
<g id="edge17" class="edge"><title>\\DiffbotSourceTest&#45;&gt;\\CakeTestCase</title>
<path fill="none" stroke="black" d="M741.179,-214.456C736.435,-211.742 731.965,-208.611 728,-205 670.343,-152.498 717.883,-92.4472 656,-45 634.61,-28.5996 607.093,-20.4882 580.592,-16.8303"/>
<polygon fill="none" stroke="black" points="580.841,-13.3355 570.5,-15.6385 580.02,-20.2872 580.841,-13.3355"/>
</g>
<!-- \\DiffbotTestSource -->
<g id="node10" class="node"><title>\\DiffbotTestSource</title>
<polygon fill="none" stroke="black" points="872,-358 742,-358 742,-322 872,-322 872,-358"/>
<text text-anchor="middle" x="807" y="-337.1" font-family="Courier,monospace" font-size="11.00">DiffbotTestSource</text>
</g>
<!-- \\DiffbotTestSource&#45;&gt;\\DiffbotSource -->
<g id="edge19" class="edge"><title>\\DiffbotTestSource&#45;&gt;\\DiffbotSource</title>
<path fill="none" stroke="black" d="M741.496,-340C685.727,-340 606.157,-340 551.32,-340"/>
<polygon fill="none" stroke="black" points="551.038,-336.5 541.038,-340 551.038,-343.5 551.038,-336.5"/>
</g>
<!-- \\DiffbotTestConnection -->
<g id="node11" class="node"><title>\\DiffbotTestConnection</title>
<polygon fill="none" stroke="black" points="886,-412 728,-412 728,-376 886,-376 886,-412"/>
<text text-anchor="middle" x="807" y="-391.1" font-family="Courier,monospace" font-size="11.00">DiffbotTestConnection</text>
</g>
<!-- \\DiffbotTestConnection&#45;&gt;\\DiffbotConnection -->
<g id="edge21" class="edge"><title>\\DiffbotTestConnection&#45;&gt;\\DiffbotConnection</title>
<path fill="none" stroke="black" d="M727.985,-394C678.183,-394 614.225,-394 565.009,-394"/>
<polygon fill="none" stroke="black" points="564.741,-390.5 554.741,-394 564.741,-397.5 564.741,-390.5"/>
</g>
</g>
</svg>
