<?xml version="1.0" encoding="UTF-8" standalone="no"?>
<!DOCTYPE svg PUBLIC "-//W3C//DTD SVG 1.1//EN"
 "http://www.w3.org/Graphics/SVG/1.1/DTD/svg11.dtd">
<!-- Generated by graphviz version 2.26.3 (20100126.1600)
 -->
<!-- Title: G Pages: 1 -->
<svg width="910pt" height="458pt"
 viewBox="0.00 0.00 910.00 458.00" xmlns="http://www.w3.org/2000/svg" xmlns:xlink="http://www.w3.org/1999/xlink">
<g id="graph1" class="graph" transform="scale(1 1) rotate(0) translate(4 454)">
<title>G</title>
<polygon fill="white" stroke="white" points="-4,5 -4,-454 907,-454 907,5 -4,5"/>
<g id="graph2" class="cluster"><title>cluster_Global</title>
<polyline fill="none" stroke="gray" points="427,-152 882,-152 "/>
<path fill="none" stroke="gray" d="M882,-152C888,-152 894,-158 894,-164"/>
<polyline fill="none" stroke="gray" points="894,-164 894,-430 "/>
<path fill="none" stroke="gray" d="M894,-430C894,-436 888,-442 882,-442"/>
<polyline fill="none" stroke="gray" points="882,-442 427,-442 "/>
<path fill="none" stroke="gray" d="M427,-442C421,-442 415,-436 415,-430"/>
<polyline fill="none" stroke="gray" points="415,-430 415,-164 "/>
<path fill="none" stroke="gray" d="M415,-164C415,-158 421,-152 427,-152"/>
<text text-anchor="middle" x="654.5" y="-428.1" font-family="Times Roman,serif" font-size="11.00" fill="gray">Global</text>
</g>
<!-- \\DiffbotSourceTest -->
<g id="node2" class="node"><title>\\DiffbotSourceTest</title>
<polygon fill="none" stroke="black" points="872,-304 742,-304 742,-268 872,-268 872,-304"/>
<text text-anchor="middle" x="807" y="-283.1" font-family="Courier,monospace" font-size="11.00">DiffbotSourceTest</text>
</g>
<!-- \\CakeTestCase -->
<g id="node10" class="node"><title>\\CakeTestCase</title>
<ellipse fill="none" stroke="black" cx="489" cy="-126" rx="82.0244" ry="18.3848"/>
<text text-anchor="middle" x="489" y="-122.4" font-family="Times Roman,serif" font-size="14.00" fill="gray">\CakeTestCase</text>
</g>
<!-- \\DiffbotSourceTest&#45;&gt;\\CakeTestCase -->
<g id="edge3" class="edge"><title>\\DiffbotSourceTest&#45;&gt;\\CakeTestCase</title>
<path fill="none" stroke="black" d="M742.154,-267.977C737.138,-265.364 732.343,-262.387 728,-259 681.631,-222.838 705.722,-179.393 656,-148 633.734,-133.942 606.47,-127.051 580.478,-124.025"/>
<polygon fill="none" stroke="black" points="580.504,-120.511 570.21,-123.017 579.82,-127.478 580.504,-120.511"/>
</g>
<!-- \\DiffbotTestSource -->
<g id="node3" class="node"><title>\\DiffbotTestSource</title>
<polygon fill="none" stroke="black" points="872,-412 742,-412 742,-376 872,-376 872,-412"/>
<text text-anchor="middle" x="807" y="-391.1" font-family="Courier,monospace" font-size="11.00">DiffbotTestSource</text>
</g>
<!-- \\DiffbotSource -->
<g id="node7" class="node"><title>\\DiffbotSource</title>
<polygon fill="none" stroke="black" points="541,-412 437,-412 437,-376 541,-376 541,-412"/>
<text text-anchor="middle" x="489" y="-391.1" font-family="Courier,monospace" font-size="11.00">DiffbotSource</text>
</g>
<!-- \\DiffbotTestSource&#45;&gt;\\DiffbotSource -->
<g id="edge5" class="edge"><title>\\DiffbotTestSource&#45;&gt;\\DiffbotSource</title>
<path fill="none" stroke="black" d="M741.496,-394C685.727,-394 606.157,-394 551.32,-394"/>
<polygon fill="none" stroke="black" points="551.038,-390.5 541.038,-394 551.038,-397.5 551.038,-390.5"/>
</g>
<!-- \\DiffbotTestConnection -->
<g id="node4" class="node"><title>\\DiffbotTestConnection</title>
<polygon fill="none" stroke="black" points="886,-358 728,-358 728,-322 886,-322 886,-358"/>
<text text-anchor="middle" x="807" y="-337.1" font-family="Courier,monospace" font-size="11.00">DiffbotTestConnection</text>
</g>
<!-- \\DiffbotConnection -->
<g id="node8" class="node"><title>\\DiffbotConnection</title>
<polygon fill="none" stroke="black" points="554,-358 424,-358 424,-322 554,-322 554,-358"/>
<text text-anchor="middle" x="489" y="-337.1" font-family="Courier,monospace" font-size="11.00">DiffbotConnection</text>
</g>
<!-- \\DiffbotTestConnection&#45;&gt;\\DiffbotConnection -->
<g id="edge7" class="edge"><title>\\DiffbotTestConnection&#45;&gt;\\DiffbotConnection</title>
<path fill="none" stroke="black" d="M727.985,-340C678.183,-340 614.225,-340 565.009,-340"/>
<polygon fill="none" stroke="black" points="564.741,-336.5 554.741,-340 564.741,-343.5 564.741,-336.5"/>
</g>
<!-- \\AllDiffbotSourceTest -->
<g id="node5" class="node"><title>\\AllDiffbotSourceTest</title>
<polygon fill="none" stroke="black" points="883,-250 731,-250 731,-214 883,-214 883,-250"/>
<text text-anchor="middle" x="807" y="-229.1" font-family="Courier,monospace" font-size="11.00">AllDiffbotSourceTest</text>
</g>
<!-- \\PHPUnit_Framework_TestSuite -->
<g id="node14" class="node"><title>\\PHPUnit_Framework_TestSuite</title>
<ellipse fill="none" stroke="black" cx="489" cy="-72" rx="166.877" ry="18.3848"/>
<text text-anchor="middle" x="489" y="-68.4" font-family="Times Roman,serif" font-size="14.00" fill="gray">\PHPUnit_Framework_TestSuite</text>
</g>
<!-- \\AllDiffbotSourceTest&#45;&gt;\\PHPUnit_Framework_TestSuite -->
<g id="edge9" class="edge"><title>\\AllDiffbotSourceTest&#45;&gt;\\PHPUnit_Framework_TestSuite</title>
<path fill="none" stroke="black" d="M742.231,-213.876C737.198,-211.285 732.379,-208.341 728,-205 682.722,-170.455 704.033,-129.599 656,-99 648.269,-94.075 639.941,-89.9495 631.276,-86.5019"/>
<polygon fill="none" stroke="black" points="632.348,-83.1672 621.754,-83.0211 629.944,-89.7417 632.348,-83.1672"/>
</g>
<!-- \\DiffbotModel -->
<g id="node6" class="node"><title>\\DiffbotModel</title>
<polygon fill="none" stroke="black" points="856,-196 758,-196 758,-160 856,-160 856,-196"/>
<text text-anchor="middle" x="807" y="-175.1" font-family="Courier,monospace" font-size="11.00">DiffbotModel</text>
</g>
<!-- \\HttpSourceModel -->
<g id="node16" class="node"><title>\\HttpSourceModel</title>
<ellipse fill="none" stroke="black" cx="489" cy="-18" rx="98.9949" ry="18.3848"/>
<text text-anchor="middle" x="489" y="-14.4" font-family="Times Roman,serif" font-size="14.00" fill="gray">\HttpSourceModel</text>
</g>
<!-- \\DiffbotModel&#45;&gt;\\HttpSourceModel -->
<g id="edge11" class="edge"><title>\\DiffbotModel&#45;&gt;\\HttpSourceModel</title>
<path fill="none" stroke="black" d="M792.483,-159.829C767.844,-130.384 714.756,-72.7469 656,-45 636.424,-35.7556 614.277,-29.5963 592.661,-25.5119"/>
<polygon fill="none" stroke="black" points="593.232,-22.0587 582.778,-23.7776 592.022,-28.9534 593.232,-22.0587"/>
</g>
<!-- \\HttpSource -->
<g id="node18" class="node"><title>\\HttpSource</title>
<ellipse fill="none" stroke="black" cx="125" cy="-394" rx="70.0036" ry="18.3848"/>
<text text-anchor="middle" x="125" y="-390.4" font-family="Times Roman,serif" font-size="14.00" fill="gray">\HttpSource</text>
</g>
<!-- \\DiffbotSource&#45;&gt;\\HttpSource -->
<g id="edge13" class="edge"><title>\\DiffbotSource&#45;&gt;\\HttpSource</title>
<path fill="none" stroke="black" d="M436.848,-394C376.329,-394 275.841,-394 205.33,-394"/>
<polygon fill="none" stroke="black" points="205.153,-390.5 195.153,-394 205.153,-397.5 205.153,-390.5"/>
</g>
<!-- \\HttpSourceConnection -->
<g id="node20" class="node"><title>\\HttpSourceConnection</title>
<ellipse fill="none" stroke="black" cx="125" cy="-340" rx="125.158" ry="18.3848"/>
<text text-anchor="middle" x="125" y="-336.4" font-family="Times Roman,serif" font-size="14.00" fill="gray">\HttpSourceConnection</text>
</g>
<!-- \\DiffbotConnection&#45;&gt;\\HttpSourceConnection -->
<g id="edge15" class="edge"><title>\\DiffbotConnection&#45;&gt;\\HttpSourceConnection</title>
<path fill="none" stroke="black" d="M423.082,-340C377.758,-340 315.95,-340 260.364,-340"/>
<polygon fill="none" stroke="black" points="260.063,-336.5 250.063,-340 260.063,-343.5 260.063,-336.5"/>
</g>
</g>
</svg>
